<svg width="17" height="17" viewBox="0 0 17 17" fill="none" xmlns="http://www.w3.org/2000/svg">
<path d="M15.0234 0H1.97659C0.889632 0 0 0.516314 0 1.14823V15.8513C0 16.4832 0.889632 17 1.97659 17H15.0234C16.1104 17 17 16.4842 17 15.8518V1.14823C17 0.516314 16.1104 0 15.0234 0ZM6.41304 0.827657H10.587C10.7191 0.827657 10.8261 0.889829 10.8261 0.967057C10.8261 1.0438 10.7191 1.10597 10.587 1.10597H6.41304C6.28094 1.10597 6.17391 1.0438 6.17391 0.967057C6.17391 0.889829 6.28094 0.827657 6.41304 0.827657ZM8.5 16.4259C7.95401 16.4259 7.51171 16.1689 7.51171 15.8513C7.51171 15.5336 7.95401 15.2772 8.5 15.2772C9.04599 15.2772 9.48829 15.5336 9.48829 15.8513C9.48829 16.1689 9.04599 16.4259 8.5 16.4259ZM15.6246 14.875H1.37542V1.82094H15.6246V14.875Z" fill="#005FA3"/>
</svg>
