<svg width="30" height="30" viewBox="0 0 30 30" fill="none" xmlns="http://www.w3.org/2000/svg">
<path d="M26.5119 0H3.4881C1.56994 0 0 0.911143 0 2.02629V27.9729C0 29.088 1.56994 30 3.4881 30H26.5119C28.4301 30 30 29.0897 30 27.9737V2.02629C30 0.911143 28.4301 0 26.5119 0ZM11.3171 1.46057H18.6829C18.916 1.46057 19.1049 1.57029 19.1049 1.70657C19.1049 1.842 18.916 1.95171 18.6829 1.95171H11.3171C11.084 1.95171 10.8951 1.842 10.8951 1.70657C10.8951 1.57029 11.084 1.46057 11.3171 1.46057ZM15 28.9869C14.0365 28.9869 13.256 28.5334 13.256 27.9729C13.256 27.4123 14.0365 26.9597 15 26.9597C15.9635 26.9597 16.744 27.4123 16.744 27.9729C16.744 28.5334 15.9635 28.9869 15 28.9869ZM27.5728 26.25H2.42721V3.21343H27.5728V26.25Z" fill="white"/>
</svg>
