<svg width="17" height="17" fill="none" xmlns="http://www.w3.org/2000/svg"><path d="M15.023 0H1.977C.89 0 0 .516 0 1.148v14.703C0 16.483.89 17 1.977 17h13.046C16.11 17 17 16.484 17 15.852V1.148C17 .516 16.11 0 15.023 0zm-8.61.828h4.174c.132 0 .24.062.24.14 0 .076-.108.138-.24.138H6.413c-.132 0-.24-.062-.24-.139 0-.077.108-.14.24-.14zM8.5 16.426c-.546 0-.988-.257-.988-.575 0-.317.442-.574.988-.574s.988.257.988.574c0 .318-.442.575-.988.575zm7.125-1.551H1.375V1.821h14.25v13.054z" fill="#005FA3"/></svg>