<svg width="30" height="30" fill="none" xmlns="http://www.w3.org/2000/svg"><path d="M26.512 0H3.488C1.57 0 0 .911 0 2.026v25.947C0 29.088 1.57 30 3.488 30h23.024C28.43 30 30 29.09 30 27.974V2.026C30 .911 28.43 0 26.512 0zM11.317 1.46h7.366c.233 0 .422.11.422.247 0 .135-.189.245-.422.245h-7.366c-.233 0-.422-.11-.422-.245 0-.137.189-.246.422-.246zM15 28.988c-.963 0-1.744-.454-1.744-1.014s.78-1.013 1.744-1.013c.963 0 1.744.452 1.744 1.013 0 .56-.78 1.014-1.744 1.014zm12.573-2.737H2.427V3.213h25.146V26.25z" fill="#fff"/></svg>